<mxfile host="app.diagrams.net" modified="2023-04-26T17:29:38.416Z" agent="Mozilla/5.0 (Windows NT 10.0; Win64; x64) AppleWebKit/537.36 (KHTML, like Gecko) Chrome/112.0.0.0 Safari/537.36 Edg/112.0.1722.58" version="21.2.1" etag="nx4FfS2c1wipd2ahY539" type="github">
  <diagram name="Страница 1" id="g33XBKq0DmujQHkSsT6p">
    <mxGraphModel>
      <root>
        <mxCell id="0" />
        <mxCell id="1" parent="0" />
      </root>
    </mxGraphModel>
  </diagram>
</mxfile>
